<svg width="158" height="32" viewBox="0 0 158 32" fill="none" xmlns="http://www.w3.org/2000/svg">
<g clip-path="url(#clip0_2295_381)">
<g clip-path="url(#clip1_2295_381)">
<path d="M-0.0078125 4C-0.0078125 1.79086 1.78305 0 3.99219 0H27.9922C30.2013 0 31.9922 1.79086 31.9922 4V28C31.9922 30.2091 30.2013 32 27.9922 32H3.99219C1.78305 32 -0.0078125 30.2091 -0.0078125 28V4Z" fill="#F0DB4F"/>
<path d="M29.3766 24.368C29.1424 22.9079 28.1903 21.682 25.3705 20.5383C24.391 20.0881 23.299 19.7657 22.9736 19.0235C22.858 18.5916 22.8428 18.3482 22.9158 18.0866C23.1256 17.2379 24.1386 16.9733 24.9416 17.2166C25.4587 17.39 25.9485 17.7885 26.2435 18.4243C27.6245 17.53 27.6215 17.536 28.5857 16.9216C28.2329 16.3741 28.0443 16.1216 27.8131 15.8874C26.9827 14.9596 25.8511 14.482 24.0412 14.5185C23.7279 14.5581 23.4116 14.6007 23.0983 14.6402C22.1948 14.8684 21.334 15.3429 20.8291 15.9786C19.3142 17.6973 19.7462 20.7056 21.5895 21.9436C23.4055 23.3064 26.0732 23.6166 26.4139 24.8912C26.7454 26.4516 25.2671 26.9566 23.7979 26.7771C22.715 26.552 22.1127 26.0014 21.4618 25.0007C20.2633 25.6942 20.2633 25.6942 19.0313 26.403C19.3234 27.0417 19.6306 27.3307 20.1203 27.8843C22.4382 30.2357 28.239 30.1201 29.2793 26.5611C29.3218 26.4395 29.6017 25.6243 29.3766 24.368ZM17.3918 14.7071H14.3986C14.3986 17.2927 14.3865 19.86 14.3865 22.4455C14.3865 24.0912 14.4716 25.5999 14.204 26.0623C13.7659 26.9718 12.6313 26.8592 12.1142 26.6828C11.588 26.4243 11.3203 26.0562 11.0101 25.536C10.9249 25.387 10.861 25.2714 10.8397 25.2623C10.0275 25.7581 9.21842 26.257 8.40625 26.7528C8.81081 27.5832 9.40701 28.3041 10.1705 28.7725C11.3112 29.457 12.8443 29.6668 14.4473 29.2988C15.4907 28.9946 16.391 28.3649 16.8625 27.4068C17.5439 26.1505 17.3979 24.6296 17.3918 22.9474C17.407 20.2037 17.3918 17.46 17.3918 14.7071Z" fill="#2D2B20"/>
</g>
<path d="M153.421 26.6066C152.627 26.6066 152.006 26.3969 151.556 25.9774C151.107 25.558 150.882 24.9213 150.882 24.0673V15.5056H148.68V13.1235H150.904V9.07861H153.826V13.1235H156.837V15.5056H153.848V24.2246H157.129V26.6066H153.421Z" fill="#2D2B20"/>
<path d="M135.102 32V13.1237H138.001V15.2135H138.09C138.869 13.6405 140.203 12.854 142.09 12.854C143.214 12.854 144.195 13.1461 145.034 13.7304C145.873 14.3147 146.525 15.1311 146.989 16.1798C147.454 17.2285 147.686 18.457 147.686 19.8652C147.686 21.2585 147.454 22.4869 146.989 23.5506C146.525 24.5993 145.873 25.4158 145.034 26C144.195 26.5843 143.214 26.8764 142.09 26.8764C140.218 26.8764 138.907 26.1124 138.158 24.5843H138.068V32H135.102ZM141.281 24.2472C142.345 24.2472 143.184 23.8502 143.798 23.0562C144.413 22.2622 144.72 21.1985 144.72 19.8652C144.72 18.5319 144.413 17.4682 143.798 16.6742C143.184 15.8802 142.345 15.4832 141.281 15.4832C140.278 15.4832 139.491 15.8128 138.922 16.472C138.353 17.1162 138.068 17.9776 138.068 19.0562V20.6742C138.068 21.7528 138.353 22.6143 138.922 23.2585C139.491 23.9027 140.278 24.2322 141.281 24.2472Z" fill="#2D2B20"/>
<path d="M128.856 26.6067V13.1236H131.822V26.6067H128.856ZM130.339 11.5056C129.859 11.5056 129.447 11.3408 129.103 11.0112C128.758 10.6667 128.586 10.2472 128.586 9.7528C128.586 9.2734 128.751 8.86142 129.08 8.51685C129.425 8.17228 129.844 8 130.339 8C130.818 8 131.23 8.17228 131.575 8.51685C131.919 8.84644 132.092 9.25842 132.092 9.7528C132.092 10.2322 131.919 10.6442 131.575 10.9888C131.245 11.3333 130.833 11.5056 130.339 11.5056Z" fill="#2D2B20"/>
<path d="M119.047 26.6067V13.1236H121.901V15.618H121.991C122.29 14.824 122.762 14.1873 123.407 13.7079C124.051 13.2285 124.83 12.9888 125.744 12.9888H126.8V15.618H125.609C124.41 15.618 123.511 15.985 122.912 16.7191C122.313 17.4532 122.013 18.4344 122.013 19.6629V26.6067H119.047Z" fill="#2D2B20"/>
<path d="M110.975 26.8764C109.746 26.8764 108.645 26.5918 107.672 26.0225C106.713 25.4382 105.956 24.6218 105.402 23.5731C104.847 22.5244 104.57 21.2884 104.57 19.8652C104.57 18.427 104.847 17.1836 105.402 16.1349C105.956 15.0862 106.713 14.2772 107.672 13.7079C108.645 13.1386 109.746 12.854 110.975 12.854C111.964 12.854 112.87 13.0413 113.694 13.4158C114.518 13.7753 115.207 14.3147 115.762 15.0338C116.331 15.7529 116.713 16.6517 116.908 17.7304H113.851C113.642 16.9813 113.282 16.427 112.773 16.0675C112.263 15.6929 111.664 15.5057 110.975 15.5057C109.956 15.5057 109.125 15.9027 108.481 16.6967C107.851 17.4757 107.537 18.5319 107.537 19.8652C107.537 21.1836 107.851 22.2397 108.481 23.0337C109.125 23.8277 109.956 24.2247 110.975 24.2247C111.709 24.2247 112.338 24.03 112.863 23.6405C113.402 23.251 113.769 22.6293 113.964 21.7753H116.953C116.773 22.9139 116.398 23.8577 115.829 24.6068C115.275 25.3558 114.578 25.9251 113.739 26.3146C112.915 26.6892 111.994 26.8764 110.975 26.8764Z" fill="#2D2B20"/>
<path d="M96.1131 26.8763C94.6749 26.8763 93.4165 26.6366 92.3378 26.1572C91.2591 25.6628 90.4051 24.9737 89.7759 24.0898C89.1617 23.1909 88.8171 22.1497 88.7422 20.9662H91.8659C92.0157 22.0448 92.4726 22.8688 93.2367 23.4381C94.0007 24.0074 94.997 24.292 96.2255 24.292C97.3641 24.292 98.2405 24.0598 98.8548 23.5954C99.484 23.116 99.7986 22.4493 99.7986 21.5954C99.7986 20.9362 99.5814 20.3894 99.1469 19.9549C98.7274 19.5055 98.0533 19.1759 97.1244 18.9662L94.1805 18.3145C92.6074 17.955 91.4164 17.3632 90.6074 16.5392C89.8134 15.7153 89.4164 14.6666 89.4164 13.3932C89.4164 12.3445 89.6785 11.4306 90.2029 10.6516C90.7273 9.85761 91.4614 9.24338 92.4052 8.80892C93.364 8.35948 94.4876 8.13477 95.7761 8.13477C97.0944 8.13477 98.2405 8.36697 99.2143 8.83139C100.203 9.28083 100.99 9.92502 101.574 10.764C102.173 11.6029 102.525 12.5842 102.63 13.7078H99.484C99.3042 12.719 98.8773 11.9625 98.2031 11.4381C97.5289 10.9138 96.6675 10.6516 95.6188 10.6516C94.63 10.6516 93.8434 10.8763 93.2591 11.3258C92.6749 11.7602 92.3827 12.3595 92.3827 13.1235C92.3827 13.7078 92.585 14.2097 92.9895 14.6291C93.409 15.0486 94.0607 15.3557 94.9446 15.5505L98.0458 16.2471C99.6188 16.6066 100.795 17.2059 101.574 18.0448C102.368 18.8838 102.765 19.9924 102.765 21.3707C102.765 23.0486 102.181 24.3894 101.012 25.3931C99.8436 26.3819 98.2106 26.8763 96.1131 26.8763Z" fill="#2D2B20"/>
<path d="M79.4769 26.854C78.1286 26.854 77.0349 26.4719 76.196 25.7079C75.357 24.9439 74.9375 23.9476 74.9375 22.7191C74.9375 21.4308 75.3645 20.4345 76.2184 19.7304C77.0874 19.0113 78.3084 18.6517 79.8814 18.6517H83.4995V18.0225C83.4995 17.1686 83.2598 16.5094 82.7804 16.045C82.316 15.5656 81.6643 15.3259 80.8253 15.3259C80.1211 15.3259 79.5369 15.4907 79.0724 15.8203C78.608 16.1349 78.3084 16.5918 78.1735 17.1911H75.1622C75.4019 15.8278 76.0237 14.7641 77.0274 14.0001C78.0462 13.236 79.3196 12.854 80.8478 12.854C82.5706 12.854 83.9115 13.3109 84.8703 14.2248C85.8441 15.1237 86.331 16.4046 86.331 18.0675V26.6068H83.5669V24.4719H83.477C83.1175 25.221 82.5856 25.8053 81.8815 26.2247C81.1774 26.6442 80.3758 26.854 79.4769 26.854ZM80.1062 24.4719C80.7504 24.4719 81.3272 24.3296 81.8365 24.045C82.3459 23.7454 82.7504 23.3483 83.0501 22.854C83.3497 22.3446 83.4995 21.7753 83.4995 21.1461V20.7641H80.0612C79.3121 20.7641 78.7353 20.9289 78.3308 21.2585C77.9413 21.5731 77.7466 22.015 77.7466 22.5843C77.7466 23.1686 77.9563 23.633 78.3758 23.9776C78.8103 24.3071 79.387 24.4719 80.1062 24.4719Z" fill="#2D2B20"/>
<path d="M66.4626 26.6066L61.2266 13.1235H64.3053L68.0582 23.2583H68.1481L71.8336 13.1235H74.8224L69.5863 26.6066H66.4626Z" fill="#2D2B20"/>
<path d="M53.6722 26.854C52.3239 26.854 51.2302 26.4719 50.3913 25.7079C49.5523 24.9439 49.1328 23.9476 49.1328 22.7191C49.1328 21.4308 49.5598 20.4345 50.4137 19.7304C51.2827 19.0113 52.5037 18.6517 54.0767 18.6517H57.6948V18.0225C57.6948 17.1686 57.4551 16.5094 56.9757 16.045C56.5113 15.5656 55.8596 15.3259 55.0206 15.3259C54.3165 15.3259 53.7322 15.4907 53.2677 15.8203C52.8033 16.1349 52.5037 16.5918 52.3688 17.1911H49.3575C49.5972 15.8278 50.219 14.7641 51.2227 14.0001C52.2415 13.236 53.5149 12.854 55.0431 12.854C56.766 12.854 58.1068 13.3109 59.0656 14.2248C60.0394 15.1237 60.5263 16.4046 60.5263 18.0675V26.6068H57.7622V24.4719H57.6723C57.3128 25.221 56.7809 25.8053 56.0768 26.2247C55.3727 26.6442 54.5711 26.854 53.6722 26.854ZM54.3015 24.4719C54.9457 24.4719 55.5225 24.3296 56.0319 24.045C56.5412 23.7454 56.9457 23.3483 57.2454 22.854C57.545 22.3446 57.6948 21.7753 57.6948 21.1461V20.7641H54.2565C53.5074 20.7641 52.9307 20.9289 52.5262 21.2585C52.1366 21.5731 51.9419 22.015 51.9419 22.5843C51.9419 23.1686 52.1516 23.633 52.5711 23.9776C53.0056 24.3071 53.5824 24.4719 54.3015 24.4719Z" fill="#2D2B20"/>
<path d="M38.9922 26.6067V23.9101H43.3518V8.40454H46.3856V24.0225C46.3856 24.8914 46.1609 25.5431 45.7114 25.9775C45.262 26.397 44.6253 26.6067 43.8013 26.6067H38.9922Z" fill="#2D2B20"/>
</g>
<defs>
<clipPath id="clip0_2295_381">
<rect width="157.137" height="32" fill="white" transform="translate(-0.0078125)"/>
</clipPath>
<clipPath id="clip1_2295_381">
<rect width="32" height="32" fill="white" transform="translate(-0.0078125)"/>
</clipPath>
</defs>
</svg>
