<svg width="16" height="16" viewBox="0 0 16 16" fill="none" xmlns="http://www.w3.org/2000/svg">
<g clip-path="url(#clip0_2290_253)">
<path d="M0 2C0 0.895431 0.895431 0 2 0H14C15.1046 0 16 0.895431 16 2V14C16 15.1046 15.1046 16 14 16H2C0.895431 16 0 15.1046 0 14V2Z" fill="#F0DB4F"/>
<path d="M14.6922 12.184C14.5751 11.454 14.099 10.841 12.6892 10.2692C12.1994 10.0441 11.6534 9.88285 11.4907 9.51175C11.4329 9.29578 11.4253 9.1741 11.4618 9.0433C11.5667 8.61897 12.0732 8.48665 12.4747 8.60832C12.7333 8.69502 12.9781 8.89426 13.1257 9.21213C13.8162 8.76498 13.8146 8.76802 14.2968 8.4608C14.1203 8.18703 14.026 8.0608 13.9105 7.94368C13.4952 7.47981 12.9295 7.24102 12.0245 7.25927C11.8679 7.27905 11.7097 7.30034 11.553 7.32011C11.1013 7.43418 10.6709 7.67144 10.4184 7.98931C9.66102 8.84863 9.87699 10.3528 10.7987 10.9718C11.7067 11.6532 13.0405 11.8083 13.2108 12.4456C13.3766 13.2258 12.6374 13.4783 11.9028 13.3886C11.3614 13.276 11.0603 13.0007 10.7348 12.5003C10.1355 12.8471 10.1355 12.8471 9.51958 13.2015C9.66559 13.5209 9.8192 13.6654 10.0641 13.9422C11.223 15.1178 14.1234 15.06 14.6435 13.2806C14.6648 13.2197 14.8048 12.8121 14.6922 12.184ZM8.69981 7.35357H7.20323C7.20323 8.64635 7.19715 9.93 7.19715 11.2228C7.19715 12.0456 7.23973 12.8 7.10589 13.0311C6.88688 13.4859 6.31958 13.4296 6.06102 13.3414C5.79791 13.2121 5.66407 13.0281 5.50893 12.768C5.46635 12.6935 5.43441 12.6357 5.42376 12.6311C5.01768 12.879 4.61311 13.1285 4.20703 13.3764C4.40931 13.7916 4.70741 14.1521 5.08916 14.3863C5.6595 14.7285 6.42604 14.8334 7.22756 14.6494C7.74924 14.4973 8.19943 14.1825 8.43517 13.7034C8.77585 13.0752 8.70285 12.3148 8.69981 11.4737C8.70741 10.1019 8.69981 8.73 8.69981 7.35357Z" fill="#323330"/>
</g>
<defs>
<clipPath id="clip0_2290_253">
<rect width="16" height="16" fill="white"/>
</clipPath>
</defs>
</svg>
